<svg width="32" height="33" viewBox="0 0 32 33" fill="none" xmlns="http://www.w3.org/2000/svg">
<g clip-path="url(#clip0_1_299)">
<path fill-rule="evenodd" clip-rule="evenodd" d="M30.97 16.2399C30.97 8.44648 24.2685 4.33817 15.9997 4.33817C7.73257 4.33817 1.03052 8.44648 1.03052 16.2399C1.03052 17.7999 1.3102 19.296 1.80501 20.6989H1.79802C1.79802 20.6989 6.59557 34.9812 15.9997 30.3514C25.405 34.9817 30.202 20.6989 30.202 20.6989H30.195C30.7062 19.2616 30.9683 17.7558 30.97 16.2399Z" fill="#E34361"/>
<path fill-rule="evenodd" clip-rule="evenodd" d="M30.97 16.2399C30.97 11.3379 28.3152 7.89557 24.29 6.01526C26.7157 8.00556 28.2082 10.8422 28.2082 14.504C28.2082 16.0641 27.9285 17.5602 27.4332 18.9641H27.4402C27.4402 18.9641 23.7 30.0813 16.3563 29.5091C16.0492 29.916 15.684 30.2962 15.2935 30.6606C15.5264 30.5663 15.7604 30.469 15.9997 30.3514C25.405 34.9817 30.202 20.699 30.202 20.699H30.195C30.7062 19.2616 30.9683 17.7559 30.97 16.2399Z" fill="#BC395B"/>
<path fill-rule="evenodd" clip-rule="evenodd" d="M16.0003 12.9608C12.3263 12.9608 10.7628 11.1489 10.6977 11.0713C10.528 10.8694 10.4504 10.6121 10.482 10.3563C10.5136 10.1004 10.6517 9.86684 10.866 9.70695C11.0804 9.54706 11.3533 9.47395 11.6248 9.5037C11.8964 9.53345 12.1442 9.66362 12.3139 9.86558C12.3462 9.90055 13.3837 11.0176 16.0003 11.0176C18.6169 11.0176 19.6538 9.90055 19.6969 9.85291C20.0615 9.44897 20.708 9.38866 21.142 9.72367C21.5755 10.0607 21.6508 10.6552 21.3029 11.0713C21.2378 11.1489 19.6743 12.9608 16.0003 12.9608Z" fill="#454849"/>
<path fill-rule="evenodd" clip-rule="evenodd" d="M16.0003 29.3803C16.1643 29.3803 16.3284 29.4168 16.4773 29.4898C18.3673 30.4213 20.1094 30.5541 21.7982 29.8958C26.3123 28.1406 28.8638 21.3994 29.1855 20.5038C29.1935 20.4658 29.2043 20.4288 29.2177 20.3923C29.6935 19.0537 29.9369 17.6516 29.9384 16.2399C29.9384 8.17128 22.4302 5.30975 16.0003 5.30975C9.57036 5.30975 2.06155 8.17178 2.06155 16.2399C2.06155 17.6387 2.30358 19.0366 2.7828 20.3918C2.79624 20.4288 2.80646 20.4668 2.81507 20.5033C3.13831 21.4024 5.70167 28.1482 10.2045 29.8978C11.8944 30.5516 13.6332 30.4198 15.5232 29.4898C15.6727 29.4168 15.8362 29.3803 16.0003 29.3803ZM19.6651 32.2484C18.4641 32.2484 17.24 31.9778 16.0003 31.4345C13.736 32.4263 11.5243 32.515 9.41493 31.6919C3.72294 29.4781 0.930467 21.338 0.815369 20.9924C0.80417 20.9595 0.795011 20.926 0.787939 20.892C0.268016 19.3897 0.00212044 17.8196 0 16.2394C0 8.53974 6.43044 3.3671 16.0003 3.3671C25.5701 3.3671 32 8.54025 32 16.2404C32 17.809 31.7354 19.3731 31.2126 20.8936C31.2056 20.9265 31.1965 20.9594 31.1846 20.9929C31.0695 21.3386 28.2776 29.4786 22.5856 31.6925C21.6315 32.064 20.6564 32.2495 19.6651 32.2495" fill="#454849"/>
<path fill-rule="evenodd" clip-rule="evenodd" d="M15.9986 12.9597C15.7786 12.9598 15.5644 12.8934 15.3875 12.7702C15.2105 12.6471 15.0801 12.4737 15.0155 12.2755C14.9246 11.9998 12.8625 5.45825 18.4049 0.515197C18.6038 0.338479 18.8688 0.243248 19.1421 0.250373C19.4153 0.257498 19.6743 0.366399 19.8625 0.553209C20.253 0.943463 20.2341 1.55875 19.8211 1.92771C15.2268 6.02336 16.9114 11.4753 16.9861 11.7043C17.0329 11.8497 17.0429 12.0033 17.0153 12.153C16.9878 12.3026 16.9234 12.4441 16.8275 12.5661C16.7315 12.6881 16.6066 12.7873 16.4626 12.8556C16.3187 12.924 16.1598 12.9596 15.9986 12.9597Z" fill="#454849"/>
<path fill-rule="evenodd" clip-rule="evenodd" d="M4.86316 2.51766C16.2224 -0.862849 15.6867 7.82411 15.6867 7.82411C15.6867 7.82411 8.44949 13.2253 4.86316 2.51766Z" fill="#3BB777"/>
<path fill-rule="evenodd" clip-rule="evenodd" d="M4.86316 2.51769L15.6867 7.82413C15.6867 7.82413 8.44949 13.2254 4.86316 2.51769Z" fill="#229857"/>
<path fill-rule="evenodd" clip-rule="evenodd" d="M6.18734 3.16637C7.26033 5.9017 8.67432 7.54178 10.3997 8.04708C12.1595 8.56556 13.8882 7.75312 14.6476 7.31422C14.5927 6.47694 14.3023 4.67671 12.8453 3.61491C11.4146 2.57389 9.17935 2.42286 6.18734 3.16637ZM11.5905 10.158C11.0182 10.158 10.4196 10.085 9.8097 9.90814C7.20117 9.15449 5.20577 6.76634 3.88161 2.80957C3.84077 2.68794 3.82578 2.55991 3.83747 2.43282C3.84916 2.30572 3.88731 2.18204 3.94975 2.06885C4.01218 1.95565 4.09767 1.85516 4.20134 1.77311C4.305 1.69106 4.42481 1.62906 4.55391 1.59066C8.75123 0.343364 11.9708 0.510108 14.1221 2.08988C16.9135 4.13744 16.7247 7.72728 16.7156 7.88084C16.7071 8.01755 16.6679 8.15101 16.6007 8.27243C16.5335 8.39386 16.4397 8.50049 16.3257 8.58533C16.2229 8.66186 14.1834 10.158 11.5905 10.158Z" fill="#454849"/>
<path fill-rule="evenodd" clip-rule="evenodd" d="M12.6694 16.3767C8.98948 16.3767 7.03604 13.8984 6.95267 13.7899C6.832 13.6338 6.78208 13.4389 6.8139 13.2481C6.84572 13.0573 6.95668 12.8862 7.12236 12.7725C7.28804 12.6588 7.49488 12.6117 7.69737 12.6417C7.89985 12.6717 8.0814 12.7763 8.20208 12.9324C8.27738 13.0272 9.89844 15.0443 12.9415 14.9141C13.3718 14.8644 13.7289 15.208 13.7472 15.6104C13.7561 15.8033 13.6834 15.9915 13.545 16.1338C13.4066 16.2761 13.2139 16.3607 13.0093 16.3691C12.8942 16.3742 12.7807 16.3767 12.6694 16.3767ZM6.64772 10.5017C7.07369 10.8417 7.12693 11.4433 6.7655 11.8447C6.67984 11.9403 6.57501 12.019 6.45703 12.0763C6.33905 12.1336 6.21023 12.1685 6.07794 12.1788C5.94565 12.1892 5.8125 12.1749 5.6861 12.1367C5.55969 12.0985 5.44252 12.0372 5.3413 11.9562C5.1366 11.7929 5.00914 11.5597 4.98695 11.3078C4.97596 11.1831 4.99115 11.0575 5.03165 10.9383C5.07214 10.8192 5.13716 10.7087 5.22297 10.6132C5.30879 10.5176 5.41373 10.439 5.5318 10.3817C5.64987 10.3244 5.77876 10.2896 5.91111 10.2792C6.1784 10.2583 6.44356 10.3383 6.64825 10.5017" fill="#FEFEFE"/>
</g>
<defs>
<clipPath id="clip0_1_299">
<rect width="32" height="32" fill="white" transform="translate(0 0.25)"/>
</clipPath>
</defs>
</svg>
