<svg width="32" height="33" viewBox="0 0 32 33" fill="none" xmlns="http://www.w3.org/2000/svg">
<path fill-rule="evenodd" clip-rule="evenodd" d="M16.2164 1.5881C13.2804 12.0526 21.9063 11.2268 21.9063 11.2268C21.9063 11.2268 27.0094 4.43465 16.2164 1.5881Z" fill="#3BB777"/>
<path fill-rule="evenodd" clip-rule="evenodd" d="M16.2164 1.5881L21.9063 11.2268C21.9063 11.2268 27.0094 4.43414 16.2164 1.5881Z" fill="#229857"/>
<path fill-rule="evenodd" clip-rule="evenodd" d="M16.8367 2.6385C16.17 5.48301 16.4058 7.58028 17.5394 8.87909C18.7157 10.2286 20.599 10.3989 21.418 10.405C21.827 9.71252 22.6336 8.03451 22.0268 6.37627C21.441 4.77581 19.6965 3.52009 16.8367 2.6385ZM21.4739 12.08C20.3929 12.08 17.8743 11.8595 16.219 9.96194C14.5887 8.0923 14.307 5.20165 15.3822 1.36757C15.443 1.15302 15.5888 0.970631 15.7877 0.860394C15.9866 0.750157 16.2224 0.721067 16.4433 0.779501C20.3966 1.82129 22.8255 3.52212 23.6623 5.8323C24.7448 8.82079 22.693 11.6024 22.6043 11.7196C22.5325 11.8151 22.4407 11.8948 22.335 11.9535C22.2293 12.0122 22.112 12.0485 21.9908 12.0602C21.9585 12.0633 21.7712 12.08 21.4739 12.08Z" fill="#454849"/>
<path fill-rule="evenodd" clip-rule="evenodd" d="M16.6927 26.2803C16.6927 28.4085 14.9137 30.1331 12.7185 30.1331C10.5233 30.1331 8.74438 28.4085 8.74438 26.2803C8.74438 24.1526 10.5233 22.4274 12.7185 22.4274C14.9132 22.4274 16.6927 24.1526 16.6927 26.2803Z" fill="#6E54A3"/>
<path fill-rule="evenodd" clip-rule="evenodd" d="M16.6927 26.2803C16.6927 28.4085 14.9137 30.1331 12.7185 30.1331C10.5233 30.1331 8.74438 28.4085 8.74438 26.2803C8.74438 24.1526 10.5233 22.4274 12.7185 22.4274C14.9132 22.4274 16.6927 24.1526 16.6927 26.2803Z" fill="#6E54A3"/>
<path fill-rule="evenodd" clip-rule="evenodd" d="M12.7185 27.1695C13.4593 27.17 14.1904 27.0067 14.8565 26.6919C15.5227 26.3771 16.1063 25.9191 16.5633 25.3525C16.1334 23.6755 14.5814 22.4274 12.7185 22.4274C10.8556 22.4274 9.30362 23.6755 8.87376 25.3525C9.33078 25.919 9.91446 26.377 10.5806 26.6918C11.2467 27.0065 11.9778 27.1699 12.7185 27.1695Z" fill="#7E64AB"/>
<path fill-rule="evenodd" clip-rule="evenodd" d="M13.7264 24.4481C13.726 24.7075 13.6196 24.9562 13.4306 25.1394C13.2416 25.3226 12.9855 25.4253 12.7185 25.425C12.4516 25.4253 12.1955 25.3226 12.0065 25.1394C11.8175 24.9562 11.7111 24.7075 11.7106 24.4481C11.7108 24.3197 11.737 24.1924 11.7877 24.0738C11.8384 23.9551 11.9127 23.8474 12.0063 23.7566C12.0999 23.6658 12.2109 23.5939 12.3331 23.5448C12.4554 23.4958 12.5863 23.4706 12.7185 23.4707C12.8507 23.4706 12.9817 23.4958 13.1039 23.5448C13.2261 23.5939 13.3372 23.6658 13.4308 23.7566C13.5244 23.8474 13.5986 23.9551 13.6494 24.0738C13.7001 24.1924 13.7263 24.3197 13.7264 24.4481Z" fill="#FEFEFE"/>
<path fill-rule="evenodd" clip-rule="evenodd" d="M12.7185 23.2654C11.0038 23.2654 9.6088 24.6174 9.6088 26.2803C9.6088 27.9426 11.0038 29.2951 12.718 29.2951C14.4328 29.2951 15.8277 27.9426 15.8277 26.2803C15.8277 24.6174 14.4328 23.2654 12.7185 23.2654ZM12.7185 30.9711C10.0507 30.9711 7.87995 28.8677 7.87995 26.2803C7.87995 23.6938 10.0501 21.5894 12.7185 21.5894C15.3864 21.5894 17.5571 23.6938 17.5571 26.2803C17.5571 28.8677 15.3864 30.9716 12.7185 30.9716" fill="#454849"/>
<path fill-rule="evenodd" clip-rule="evenodd" d="M10.4393 20.2181C10.4393 22.3463 8.66039 24.071 6.46569 24.071C4.27046 24.071 2.49154 22.3463 2.49154 20.2181C2.49154 18.0899 4.27046 16.3653 6.46569 16.3653C8.66039 16.3653 10.4393 18.0899 10.4393 20.2181Z" fill="#6E54A3"/>
<path fill-rule="evenodd" clip-rule="evenodd" d="M10.4393 20.2181C10.4393 22.3463 8.66039 24.071 6.46569 24.071C4.27046 24.071 2.49154 22.3463 2.49154 20.2181C2.49154 18.0899 4.27046 16.3653 6.46569 16.3653C8.66039 16.3653 10.4393 18.0899 10.4393 20.2181Z" fill="#6E54A3"/>
<path fill-rule="evenodd" clip-rule="evenodd" d="M6.46568 21.1073C7.20636 21.1077 7.93742 20.9443 8.60346 20.6294C9.2695 20.3145 9.85306 19.8564 10.3099 19.2899C9.88007 17.6129 8.3286 16.3648 6.46516 16.3648C4.60277 16.3648 3.05077 17.6129 2.62091 19.2899C3.07789 19.8564 3.66154 20.3145 4.32767 20.6294C4.9938 20.9443 5.72493 21.1077 6.46568 21.1073Z" fill="#7E64AB"/>
<path fill-rule="evenodd" clip-rule="evenodd" d="M7.47356 18.3855C7.47343 18.514 7.44725 18.6412 7.39652 18.7598C7.3458 18.8785 7.27152 18.9863 7.17793 19.077C7.08434 19.1678 6.97327 19.2398 6.85106 19.2888C6.72885 19.3379 6.5979 19.363 6.46568 19.3629C6.33342 19.3631 6.20241 19.338 6.08014 19.2889C5.95787 19.2399 5.84674 19.168 5.75309 19.0772C5.65945 18.9865 5.58512 18.8786 5.53437 18.76C5.48361 18.6413 5.45741 18.514 5.45728 18.3855C5.45741 18.257 5.48361 18.1297 5.53437 18.011C5.58512 17.8923 5.65945 17.7845 5.75309 17.6938C5.84674 17.603 5.95787 17.531 6.08014 17.482C6.20241 17.433 6.33342 17.4079 6.46568 17.4081C6.5979 17.4079 6.72885 17.4331 6.85106 17.4822C6.97327 17.5312 7.08434 17.6032 7.17793 17.6939C7.27152 17.7847 7.3458 17.8925 7.39652 18.0111C7.44725 18.1298 7.47343 18.257 7.47356 18.3855Z" fill="#FEFEFE"/>
<path fill-rule="evenodd" clip-rule="evenodd" d="M6.46569 17.2038C4.75145 17.2038 3.35596 18.5558 3.35596 20.2186C3.35596 21.8804 4.75145 23.2325 6.46517 23.2325C8.17993 23.2325 9.5749 21.8804 9.5749 20.2186C9.5749 18.5558 8.17993 17.2038 6.46569 17.2038ZM6.46569 24.909C3.79783 24.909 1.62712 22.8051 1.62712 20.2186C1.62712 17.6322 3.7973 15.5273 6.46569 15.5273C9.13355 15.5273 11.3043 17.6322 11.3043 20.2186C11.3043 22.8051 9.13355 24.909 6.46569 24.909Z" fill="#454849"/>
<path fill-rule="evenodd" clip-rule="evenodd" d="M26.3323 16.9346C26.3323 19.0628 24.5533 20.7874 22.3581 20.7874C20.1629 20.7874 18.384 19.0628 18.384 16.9346C18.384 14.8064 20.1629 13.0817 22.3581 13.0817C24.5528 13.0817 26.3323 14.8064 26.3323 16.9346Z" fill="#6E54A3"/>
<path fill-rule="evenodd" clip-rule="evenodd" d="M26.3323 16.9346C26.3323 19.0628 24.5533 20.7874 22.3581 20.7874C20.1629 20.7874 18.384 19.0628 18.384 16.9346C18.384 14.8064 20.1629 13.0817 22.3581 13.0817C24.5528 13.0817 26.3323 14.8064 26.3323 16.9346Z" fill="#6E54A3"/>
<path fill-rule="evenodd" clip-rule="evenodd" d="M22.3581 17.8238C23.0989 17.8242 23.83 17.6607 24.4961 17.3458C25.1622 17.031 25.7459 16.5729 26.2029 16.0064C25.773 14.3294 24.221 13.0812 22.3581 13.0812C20.4952 13.0812 18.9432 14.3294 18.5133 16.0064C18.9703 16.573 19.5539 17.0311 20.22 17.3459C20.8862 17.6608 21.6173 17.8242 22.3581 17.8238Z" fill="#7E64AB"/>
<path fill-rule="evenodd" clip-rule="evenodd" d="M23.366 15.1019C23.3659 15.2304 23.3397 15.3576 23.2889 15.4763C23.2382 15.595 23.1639 15.7027 23.0704 15.7935C22.9768 15.8843 22.8657 15.9562 22.7435 16.0053C22.6213 16.0543 22.4903 16.0795 22.3581 16.0794C22.2259 16.0795 22.0949 16.0543 21.9727 16.0053C21.8505 15.9562 21.7394 15.8843 21.6459 15.7935C21.5523 15.7027 21.478 15.595 21.4273 15.4763C21.3765 15.3576 21.3504 15.2304 21.3502 15.1019C21.3504 14.9735 21.3765 14.8463 21.4273 14.7276C21.478 14.6089 21.5523 14.5012 21.6459 14.4104C21.7394 14.3196 21.8505 14.2477 21.9727 14.1986C22.0949 14.1496 22.2259 14.1244 22.3581 14.1245C22.4903 14.1244 22.6213 14.1496 22.7435 14.1986C22.8657 14.2477 22.9768 14.3196 23.0704 14.4104C23.1639 14.5012 23.2382 14.6089 23.2889 14.7276C23.3397 14.8463 23.3659 14.9735 23.366 15.1019Z" fill="#FEFEFE"/>
<path fill-rule="evenodd" clip-rule="evenodd" d="M22.3581 13.9197C20.6439 13.9197 19.2489 15.2718 19.2489 16.9346C19.2489 18.5969 20.6439 19.9484 22.3581 19.9484C24.0723 19.9484 25.4673 18.5969 25.4673 16.9346C25.4673 15.2718 24.0723 13.9197 22.3581 13.9197ZM22.3581 21.6254C19.6902 21.6254 17.5195 19.5216 17.5195 16.9346C17.5195 14.3481 19.6902 12.2437 22.3581 12.2437C25.026 12.2437 27.1967 14.3481 27.1967 16.9346C27.1967 19.5211 25.026 21.6254 22.3581 21.6254Z" fill="#454849"/>
<path fill-rule="evenodd" clip-rule="evenodd" d="M20.0794 10.8719C20.0794 13.0001 18.3 14.7248 16.1053 14.7248C13.91 14.7248 12.1311 13.0001 12.1311 10.8719C12.1311 8.74423 13.91 7.01907 16.1053 7.01907C18.3 7.01907 20.0789 8.74423 20.0789 10.8719" fill="#6E54A3"/>
<path fill-rule="evenodd" clip-rule="evenodd" d="M20.0794 10.8719C20.0794 13.0001 18.3 14.7248 16.1053 14.7248C13.91 14.7248 12.1311 13.0001 12.1311 10.8719C12.1311 8.74423 13.91 7.01907 16.1053 7.01907C18.3 7.01907 20.0789 8.74423 20.0789 10.8719" fill="#6E54A3"/>
<path fill-rule="evenodd" clip-rule="evenodd" d="M16.1053 11.7611C16.8459 11.7615 17.5769 11.5982 18.243 11.2834C18.909 10.9686 19.4926 10.5106 19.9495 9.94419C19.5196 8.26719 17.9682 7.01907 16.1047 7.01907C14.2423 7.01907 12.6904 8.26719 12.2605 9.94419C12.7175 10.5106 13.3012 10.9686 13.9673 11.2834C14.6334 11.5982 15.3645 11.7616 16.1053 11.7611Z" fill="#7E64AB"/>
<path fill-rule="evenodd" clip-rule="evenodd" d="M17.1131 9.03979C17.1127 9.29919 17.0063 9.54782 16.8173 9.73101C16.6283 9.9142 16.3722 10.017 16.1053 10.0167C15.973 10.0169 15.8421 9.99177 15.7198 9.94279C15.5976 9.8938 15.4865 9.8219 15.3929 9.73119C15.2992 9.64047 15.2249 9.53273 15.1741 9.41409C15.1233 9.29546 15.0971 9.16827 15.0969 9.03979C15.097 8.91125 15.1232 8.78401 15.1739 8.66532C15.2247 8.54663 15.299 8.43882 15.3927 8.34805C15.4863 8.25729 15.5975 8.18534 15.7197 8.13632C15.842 8.08731 15.973 8.06218 16.1053 8.06238C16.2375 8.06225 16.3684 8.08742 16.4906 8.13647C16.6128 8.18552 16.7239 8.25747 16.8175 8.34823C16.9111 8.439 16.9854 8.54678 17.0361 8.66544C17.0868 8.78409 17.113 8.9113 17.1131 9.03979Z" fill="#FEFEFE"/>
<path fill-rule="evenodd" clip-rule="evenodd" d="M16.1047 7.85759C14.3905 7.85759 12.9955 9.21014 12.9955 10.8729C12.9955 12.5347 14.3905 13.8868 16.1047 13.8868C17.8195 13.8868 19.2145 12.5347 19.2145 10.8729C19.2145 9.21014 17.8195 7.85708 16.1053 7.85708M16.1053 15.5628C13.4369 15.5628 11.2662 13.4589 11.2662 10.8729C11.2662 8.28545 13.4369 6.18109 16.1047 6.18109C18.7726 6.18109 20.9433 8.28545 20.9433 10.8729C20.9433 13.4594 18.7731 15.5633 16.1047 15.5633" fill="#454849"/>
<path fill-rule="evenodd" clip-rule="evenodd" d="M18.4048 18.5578C18.4048 20.686 16.6259 22.4107 14.4307 22.4107C12.236 22.4107 10.4565 20.686 10.4565 18.5578C10.4565 16.4296 12.2355 14.705 14.4307 14.705C16.6254 14.705 18.4048 16.4296 18.4048 18.5578Z" fill="#6E54A3"/>
<path fill-rule="evenodd" clip-rule="evenodd" d="M18.4048 18.5578C18.4048 20.686 16.6259 22.4107 14.4307 22.4107C12.236 22.4107 10.4565 20.686 10.4565 18.5578C10.4565 16.4296 12.2355 14.705 14.4307 14.705C16.6254 14.705 18.4048 16.4296 18.4048 18.5578Z" fill="#6E54A3"/>
<path fill-rule="evenodd" clip-rule="evenodd" d="M14.4307 19.4465C15.1714 19.4471 15.9025 19.2837 16.5687 18.9689C17.2348 18.6541 17.8185 18.1961 18.2754 17.6296C17.8456 15.9526 16.2936 14.7045 14.4307 14.7045C12.5683 14.7045 11.0163 15.9526 10.5859 17.6296C11.0429 18.1962 11.6265 18.6542 12.2927 18.9691C12.9588 19.284 13.6899 19.4469 14.4307 19.4465Z" fill="#7E64AB"/>
<path fill-rule="evenodd" clip-rule="evenodd" d="M15.4386 16.7252C15.4384 16.8537 15.4122 16.9809 15.3615 17.0996C15.3108 17.2182 15.2365 17.326 15.1429 17.4168C15.0493 17.5075 14.9383 17.5795 14.8161 17.6285C14.6938 17.6776 14.5629 17.7028 14.4307 17.7026C14.2985 17.7028 14.1675 17.6776 14.0453 17.6285C13.9231 17.5795 13.812 17.5075 13.7184 17.4168C13.6248 17.326 13.5506 17.2182 13.4998 17.0996C13.4491 16.9809 13.4229 16.8537 13.4228 16.7252C13.4232 16.4658 13.5296 16.2172 13.7186 16.034C13.9076 15.8508 14.1637 15.7481 14.4307 15.7483C14.6976 15.7481 14.9537 15.8508 15.1427 16.034C15.3317 16.2172 15.4381 16.4658 15.4386 16.7252Z" fill="#FEFEFE"/>
<path fill-rule="evenodd" clip-rule="evenodd" d="M14.4307 15.543C12.7164 15.543 11.3215 16.8951 11.3215 18.5579C11.3215 20.2197 12.7164 21.5727 14.4307 21.5727C16.1449 21.5727 17.5404 20.2197 17.5404 18.5579C17.5404 16.8951 16.1444 15.543 14.4307 15.543ZM14.4312 23.2487C11.7628 23.2487 9.5921 21.1448 9.5921 18.5579C9.5921 15.9714 11.7628 13.8665 14.4307 13.8665C17.0985 13.8665 19.2692 15.9714 19.2692 18.5579C19.2692 21.1453 17.0996 23.2487 14.4312 23.2487Z" fill="#454849"/>
<path fill-rule="evenodd" clip-rule="evenodd" d="M12.152 12.4957C12.152 14.6234 10.3731 16.3485 8.17784 16.3485C5.98261 16.3485 4.20369 14.6234 4.20369 12.4957C4.20369 10.3675 5.98261 8.64285 8.17784 8.64285C10.3725 8.64285 12.152 10.3675 12.152 12.4957Z" fill="#6E54A3"/>
<path fill-rule="evenodd" clip-rule="evenodd" d="M12.152 12.4957C12.152 14.6234 10.3731 16.3485 8.17784 16.3485C5.98261 16.3485 4.20369 14.6234 4.20369 12.4957C4.20369 10.3675 5.98261 8.64285 8.17784 8.64285C10.3725 8.64285 12.152 10.3675 12.152 12.4957Z" fill="#6E54A3"/>
<path fill-rule="evenodd" clip-rule="evenodd" d="M8.17783 13.3844C8.91855 13.3848 9.64965 13.2215 10.3158 12.9067C10.9819 12.5919 11.5656 12.1339 12.0226 11.5675C11.5927 9.89048 10.0407 8.64236 8.17783 8.64236C6.31492 8.64236 4.76292 9.89048 4.33306 11.5675C4.79009 12.1339 5.37377 12.5919 6.03989 12.9067C6.70602 13.2215 7.43712 13.3848 8.17783 13.3844Z" fill="#7E64AB"/>
<path fill-rule="evenodd" clip-rule="evenodd" d="M9.18572 10.6631C9.18558 10.7916 9.1594 10.9188 9.10868 11.0374C9.05795 11.1561 8.98367 11.2639 8.89008 11.3546C8.79649 11.4454 8.68542 11.5173 8.56322 11.5664C8.44101 11.6154 8.31006 11.6406 8.17784 11.6405C8.04562 11.6406 7.91466 11.6154 7.79245 11.5664C7.67025 11.5173 7.55918 11.4454 7.46559 11.3546C7.372 11.2639 7.29772 11.1561 7.24699 11.0374C7.19627 10.9188 7.17009 10.7916 7.16995 10.6631C7.17009 10.5346 7.19627 10.4074 7.24699 10.2887C7.29772 10.1701 7.372 10.0623 7.46559 9.97152C7.55918 9.88076 7.67025 9.80881 7.79245 9.75976C7.91466 9.71071 8.04562 9.68554 8.17784 9.68567C8.31006 9.68554 8.44101 9.71071 8.56322 9.75976C8.68542 9.80881 8.79649 9.88076 8.89008 9.97152C8.98367 10.0623 9.05795 10.1701 9.10868 10.2887C9.1594 10.4074 9.18558 10.5346 9.18572 10.6631Z" fill="#FEFEFE"/>
<path fill-rule="evenodd" clip-rule="evenodd" d="M8.17784 9.48086C6.4636 9.48086 5.06863 10.8329 5.06863 12.4957C5.06863 14.158 6.4636 15.5101 8.17784 15.5101C9.8926 15.5101 11.2876 14.158 11.2876 12.4957C11.2876 10.8329 9.89207 9.48086 8.17784 9.48086ZM8.17836 17.1865C5.51049 17.1865 3.33979 15.0827 3.33979 12.4957C3.33979 9.90923 5.50997 7.80487 8.17784 7.80487C10.8457 7.80487 13.0164 9.90923 13.0164 12.4957C13.0164 15.0827 10.8462 17.186 8.17784 17.186" fill="#454849"/>
<path fill-rule="evenodd" clip-rule="evenodd" d="M24.3415 24.3133C24.3415 26.4415 22.5626 28.1661 20.3674 28.1661C18.1722 28.1661 16.3932 26.4415 16.3932 24.3133C16.3932 22.1856 18.1722 20.4604 20.3674 20.4604C22.5621 20.4604 24.3415 22.1856 24.3415 24.3133Z" fill="#6E54A3"/>
<path fill-rule="evenodd" clip-rule="evenodd" d="M24.3415 24.3133C24.3415 26.4415 22.5626 28.1661 20.3674 28.1661C18.1722 28.1661 16.3932 26.4415 16.3932 24.3133C16.3932 22.1856 18.1722 20.4604 20.3674 20.4604C22.5621 20.4604 24.3415 22.1856 24.3415 24.3133Z" fill="#6E54A3"/>
<path fill-rule="evenodd" clip-rule="evenodd" d="M20.3674 25.2025C21.1081 25.2029 21.8392 25.0396 22.5053 24.7248C23.1714 24.41 23.7551 23.952 24.2121 23.3856C23.7823 21.7086 22.2303 20.4604 20.3674 20.4604C18.5045 20.4604 16.9525 21.7086 16.5226 23.3856C16.9796 23.952 17.5633 24.41 18.2294 24.7248C18.8956 25.0396 19.6267 25.2029 20.3674 25.2025Z" fill="#7E64AB"/>
<path fill-rule="evenodd" clip-rule="evenodd" d="M21.3753 22.4812C21.3748 22.7406 21.2684 22.9892 21.0794 23.1724C20.8904 23.3556 20.6343 23.4583 20.3674 23.4581C20.1004 23.4583 19.8443 23.3556 19.6553 23.1724C19.4663 22.9892 19.3599 22.7406 19.3595 22.4812C19.3596 22.3527 19.3858 22.2255 19.4365 22.1068C19.4873 21.9882 19.5615 21.8804 19.6551 21.7896C19.7487 21.6988 19.8598 21.6269 19.982 21.5778C20.1042 21.5288 20.2352 21.5036 20.3674 21.5038C20.4996 21.5036 20.6306 21.5288 20.7528 21.5778C20.875 21.6269 20.986 21.6988 21.0796 21.7896C21.1732 21.8804 21.2475 21.9882 21.2982 22.1068C21.3489 22.2255 21.3751 22.3527 21.3753 22.4812Z" fill="#FEFEFE"/>
<path fill-rule="evenodd" clip-rule="evenodd" d="M20.3674 21.2984C18.6531 21.2984 17.2582 22.6505 17.2582 24.3133C17.2582 25.9756 18.6531 27.3281 20.3674 27.3281C22.0816 27.3281 23.4766 25.9756 23.4766 24.3133C23.4766 22.6505 22.0816 21.2984 20.3674 21.2984ZM20.3674 29.0046C17.6995 29.0046 15.5288 26.9008 15.5288 24.3133C15.5288 21.7268 17.6995 19.6224 20.3674 19.6224C23.0352 19.6224 25.2059 21.7268 25.2059 24.3133C25.2059 26.9008 23.0358 29.0046 20.3674 29.0046Z" fill="#454849"/>
<path fill-rule="evenodd" clip-rule="evenodd" d="M8.81271 28.0597C8.81271 30.1874 7.03379 31.9125 4.83857 31.9125C2.64386 31.9125 0.864418 30.1874 0.864418 28.0597C0.864418 25.931 2.64334 24.2063 4.83857 24.2063C7.03327 24.2063 8.81271 25.9315 8.81271 28.0597Z" fill="#6E54A3"/>
<path fill-rule="evenodd" clip-rule="evenodd" d="M8.81271 28.0597C8.81271 30.1874 7.03379 31.9125 4.83857 31.9125C2.64386 31.9125 0.864418 30.1874 0.864418 28.0597C0.864418 25.931 2.64334 24.2063 4.83857 24.2063C7.03327 24.2063 8.81271 25.9315 8.81271 28.0597Z" fill="#6E54A3"/>
<path fill-rule="evenodd" clip-rule="evenodd" d="M4.83857 28.9484C5.57928 28.9488 6.31038 28.7854 6.97651 28.4707C7.64263 28.1559 8.22631 27.6979 8.68334 27.1314C8.25348 25.4539 6.70148 24.2063 4.83857 24.2063C2.97565 24.2063 1.42366 25.4539 0.993797 27.1314C1.45083 27.6979 2.0345 28.1559 2.70063 28.4707C3.36675 28.7854 4.09786 28.9488 4.83857 28.9484Z" fill="#7E64AB"/>
<path fill-rule="evenodd" clip-rule="evenodd" d="M5.84645 26.2265C5.84632 26.355 5.82014 26.4822 5.76941 26.6009C5.71869 26.7195 5.64441 26.8273 5.55082 26.9181C5.45723 27.0088 5.34616 27.0808 5.22395 27.1299C5.10174 27.1789 4.97079 27.2041 4.83857 27.2039C4.70635 27.2041 4.5754 27.1789 4.45319 27.1299C4.33098 27.0808 4.21991 27.0088 4.12632 26.9181C4.03273 26.8273 3.95845 26.7195 3.90773 26.6009C3.857 26.4822 3.83083 26.355 3.83069 26.2265C3.8311 25.9671 3.93751 25.7185 4.12651 25.5353C4.31551 25.3521 4.57163 25.2494 4.83857 25.2496C5.10551 25.2494 5.36164 25.3521 5.55064 25.5353C5.73964 25.7185 5.84604 25.9671 5.84645 26.2265Z" fill="#FEFEFE"/>
<path fill-rule="evenodd" clip-rule="evenodd" d="M4.83857 25.0443C3.12433 25.0443 1.72936 26.3969 1.72936 28.0597C1.72936 29.722 3.12433 31.074 4.83857 31.074C6.5528 31.074 7.9483 29.722 7.9483 28.0597C7.9483 26.3969 6.55281 25.0443 4.83909 25.0443M4.83909 32.75C2.17018 32.75 0 30.6462 0 28.0597C0 25.4727 2.1707 23.3678 4.83857 23.3678C7.50643 23.3678 9.67714 25.4727 9.67714 28.0597C9.67714 30.6462 7.50696 32.75 4.83857 32.75M26.6969 9.76019C26.3323 10.3731 26.1872 11.025 26.3526 11.499C26.4987 11.9234 26.9264 12.1718 27.6218 12.2372C28.1284 12.2838 28.7747 12.2133 28.9766 11.6065C29.141 11.1112 28.9438 10.3736 28.2515 9.98325C27.8634 9.76272 27.3412 9.67045 26.6969 9.76019ZM19.8368 14.1722C19.6282 14.1722 19.4179 14.0992 19.252 13.9502C19.1684 13.8759 19.1007 13.7862 19.0529 13.6864C19.005 13.5866 18.9779 13.4786 18.9732 13.3686C18.9684 13.2586 18.9861 13.1488 19.0252 13.0454C19.0643 12.9421 19.124 12.8473 19.2009 12.7664C21.8719 9.95232 24.0196 8.72093 25.6541 8.27329C25.8393 8.04364 26.0469 7.82515 26.2743 7.62186C27.7507 6.30276 29.696 5.95499 31.477 6.6987C31.5812 6.74189 31.6756 6.80465 31.7548 6.88336C31.834 6.96208 31.8964 7.0552 31.9384 7.1574C31.9805 7.2596 32.0014 7.36886 31.9999 7.47892C31.9985 7.58898 31.9746 7.69768 31.9299 7.79878C31.8385 8.00291 31.6678 8.16368 31.455 8.2461C31.2422 8.32851 31.0045 8.3259 30.7936 8.23882C29.8473 7.84238 29.0293 7.9752 28.4184 8.23476C28.664 8.30898 28.9002 8.40965 29.1227 8.53488C30.4358 9.27757 31.066 10.7858 30.622 12.1211C30.2975 13.097 29.2881 14.083 27.4554 13.905C25.5722 13.7286 24.9289 12.6569 24.713 12.0344C24.5512 11.569 24.521 11.0499 24.6065 10.5196C23.4312 11.166 22.0446 12.2463 20.4738 13.901C20.3927 13.9867 20.2942 14.0551 20.1844 14.1018C20.0747 14.1485 19.9561 14.1725 19.8363 14.1722" fill="#454849"/>
</svg>
