<svg width="32" height="33" viewBox="0 0 32 33" fill="none" xmlns="http://www.w3.org/2000/svg">
<path fill-rule="evenodd" clip-rule="evenodd" d="M25.5374 25.7882C29.2949 22.0309 30.9223 17.037 30.3112 12.5368L30.3137 12.5379C30.3137 12.5379 29.7829 8.45648 30.4841 6.58645C31.4702 4.93465 30.9465 3.45503 29.8709 2.37898C28.7948 1.30395 27.3151 0.780866 25.6641 1.76678C23.7939 2.4681 19.7132 1.93692 19.7132 1.93692V1.93894C15.2124 1.32876 10.2195 2.95473 6.46206 6.71304C2.70358 10.4703 1.07766 15.4632 1.68832 19.9638H1.68631C1.68631 19.9638 2.21756 24.0447 1.51643 25.9153C0.530319 27.566 1.05353 29.0457 2.12961 30.1217C3.20468 31.1977 4.68435 31.7208 6.33641 30.7344C8.2061 30.0336 12.2873 30.5648 12.2873 30.5648L12.2863 30.5617C16.7866 31.1729 21.7805 29.546 25.5379 25.7887" fill="#FAD841"/>
<path fill-rule="evenodd" clip-rule="evenodd" d="M30.3137 12.5374C30.3137 12.5374 30.0976 10.8719 30.1247 9.1806C29.9227 8.96589 29.7638 8.49345 29.6608 7.70401H29.6578C30.379 13.0159 28.4591 18.9101 24.0231 23.3469C19.8429 27.527 13.2658 29.6563 8.07593 29.2857C7.77738 29.5773 7.28181 30.0579 6.66663 30.6306C8.64689 30.0918 12.2868 30.5648 12.2868 30.5648V30.5612C16.7866 31.1724 21.78 29.5465 25.5369 25.7881C29.2954 22.0309 30.9213 17.038 30.3102 12.5374H30.3137Z" fill="#FAAC28"/>
<path fill-rule="evenodd" clip-rule="evenodd" d="M2.67594 19.9061C2.76088 20.5948 3.17603 24.3025 2.44122 26.2631C2.4202 26.3183 2.39447 26.3715 2.36433 26.4221C1.73506 27.4754 1.89137 28.4856 2.82823 29.4219C3.76458 30.3587 4.77281 30.5141 5.82878 29.8857C5.87904 29.8554 5.93282 29.83 5.98811 29.8088C8.0317 29.0441 11.9711 29.5267 12.4144 29.5834C16.7911 30.1749 21.4327 28.4952 24.8383 25.0889C28.2445 21.6825 29.9242 17.0411 29.3316 12.671C29.3275 12.6452 29.3248 12.6192 29.3236 12.5931C29.2376 11.9029 28.823 8.19773 29.5583 6.23908C29.5784 6.18388 29.6045 6.13021 29.6342 6.08008C30.2644 5.02479 30.1081 4.01559 29.1718 3.07829C28.2334 2.1415 27.2247 1.98503 26.1702 2.61648C26.12 2.64686 26.0667 2.67167 26.0114 2.69345C24.0588 3.42617 20.3696 3.01702 19.6635 2.9279C19.6353 2.92619 19.6071 2.92349 19.5791 2.9198C15.2124 2.32329 10.5673 4.00597 7.16119 7.41235C3.75503 10.8187 2.07533 15.4602 2.6684 19.8312C2.67242 19.856 2.67443 19.8818 2.67644 19.9061M4.57528 32.25C3.46252 32.251 2.37739 31.7689 1.42998 30.8205C-0.134627 29.2558 -0.429657 27.3194 0.615762 25.4945C1.0857 24.1146 0.842437 21.1386 0.705226 20.0914C0.702235 20.0701 0.700223 20.0487 0.699194 20.0271C0.0498286 15.0682 1.93962 9.83434 5.76244 6.01374C9.58224 2.19315 14.8128 0.299817 19.769 0.950002C19.7927 0.950508 19.8168 0.952534 19.8404 0.956585C20.8898 1.09128 23.8668 1.33434 25.2434 0.86645C27.0699 -0.179719 29.0049 0.114991 30.57 1.67969C32.1346 3.24438 32.4297 5.18076 31.3842 7.00674C30.9143 8.38661 31.1576 11.3605 31.2948 12.4098L31.3008 12.4756C31.9487 17.433 30.0594 22.6659 26.2366 26.4875C22.3982 30.3273 17.1369 32.2171 12.1601 31.5436L12.146 31.5416C10.2472 31.3132 7.86886 31.259 6.75559 31.6348C6.03586 32.0459 5.29954 32.25 4.57478 32.25" fill="#454849"/>
<path fill-rule="evenodd" clip-rule="evenodd" d="M15.0536 23.8903C14.8707 24.1052 14.611 24.2388 14.3309 24.2619C14.0509 24.2851 13.773 24.1959 13.5578 24.0138C13.1105 23.635 13.0552 22.9656 13.4342 22.5185C13.6171 22.3035 13.8768 22.1699 14.1569 22.1468C14.4369 22.1237 14.7148 22.2128 14.93 22.3949C15.3773 22.7737 15.4326 23.4431 15.0536 23.8903ZM17.7983 22.0739C17.6155 22.2887 17.3559 22.4222 17.0759 22.4453C16.7959 22.4685 16.5182 22.3794 16.3031 22.1975C15.8558 21.8187 15.8005 21.1493 16.1794 20.7021C16.3623 20.4873 16.6219 20.3538 16.9018 20.3307C17.1818 20.3076 17.4595 20.3966 17.6747 20.5786C18.122 20.9573 18.1773 21.6268 17.7983 22.0739ZM16.9982 25.7942C16.8326 26.0228 16.5841 26.1762 16.3068 26.2211C16.0296 26.2661 15.7459 26.1989 15.5175 26.0343C15.4046 25.9534 15.3087 25.8509 15.2354 25.7325C15.1621 25.6141 15.1128 25.4823 15.0904 25.3446C15.068 25.2069 15.0728 25.0661 15.1047 24.9304C15.1366 24.7946 15.1949 24.6665 15.2763 24.5536C15.4419 24.3248 15.6905 24.1712 15.968 24.1262C16.2456 24.0813 16.5295 24.1486 16.7579 24.3136C16.8708 24.3944 16.9666 24.497 17.0399 24.6154C17.1131 24.7338 17.1624 24.8657 17.1847 25.0034C17.207 25.1411 17.2021 25.2819 17.17 25.4176C17.138 25.5534 17.0796 25.6814 16.9982 25.7942ZM19.8811 24.4766C19.6143 24.7077 19.2679 24.8235 18.9169 24.7989C18.5659 24.7742 18.2388 24.6111 18.0064 24.345C17.8919 24.2136 17.8044 24.0606 17.7489 23.8949C17.6935 23.7293 17.6712 23.5541 17.6833 23.3797C17.6955 23.2053 17.7418 23.035 17.8197 22.8788C17.8976 22.7225 18.0055 22.5834 18.1371 22.4694C18.4039 22.238 18.7506 22.122 19.1018 22.1467C19.453 22.1713 19.7804 22.3346 20.0128 22.601C20.1272 22.7325 20.2145 22.8855 20.2699 23.0511C20.3252 23.2168 20.3474 23.3919 20.3351 23.5663C20.3229 23.7406 20.2765 23.9108 20.1985 24.067C20.1206 24.2232 20.0127 24.3622 19.8811 24.4761M22.9696 22.8041C22.6047 23.2345 21.9594 23.2882 21.5297 22.9241C21.4272 22.8378 21.3428 22.732 21.2813 22.6126C21.2197 22.4932 21.1823 22.3627 21.1712 22.2287C21.1601 22.0947 21.1755 21.9597 21.2165 21.8317C21.2575 21.7037 21.3233 21.5852 21.41 21.483C21.5863 21.2763 21.8362 21.1479 22.1057 21.1255C22.3752 21.1031 22.6426 21.1886 22.85 21.3635C23.2812 21.728 23.3345 22.3732 22.9696 22.8041ZM24.9569 20.6991C24.7864 20.8995 24.5443 21.0241 24.2831 21.0457C24.022 21.0674 23.7629 20.9843 23.5622 20.8145C23.4631 20.7309 23.3815 20.6284 23.3219 20.5128C23.2624 20.3972 23.2263 20.2708 23.2155 20.1411C23.2048 20.0113 23.2197 19.8807 23.2593 19.7567C23.299 19.6328 23.3626 19.518 23.4466 19.419C23.6172 19.2189 23.8593 19.0946 24.1203 19.0731C24.3813 19.0515 24.6402 19.1345 24.8408 19.304C25.258 19.657 25.3098 20.2813 24.9564 20.6986M11.1604 27.8633C10.99 28.0638 10.7479 28.1885 10.4867 28.2102C10.2256 28.2319 9.96645 28.1489 9.76569 27.9792C9.66663 27.8957 9.585 27.7932 9.5255 27.6777C9.46601 27.5622 9.42984 27.4359 9.41909 27.3063C9.40834 27.1766 9.42322 27.046 9.46287 26.9222C9.50252 26.7983 9.56616 26.6836 9.65009 26.5847C9.82052 26.3843 10.0625 26.2597 10.3235 26.238C10.5846 26.2163 10.8436 26.2992 11.0443 26.4687C11.4615 26.8222 11.5137 27.446 11.1604 27.8633ZM13.9383 26.8743C13.7679 27.0749 13.5258 27.1995 13.2646 27.2212C13.0035 27.2429 12.7444 27.16 12.5436 26.9903C12.4445 26.9068 12.3629 26.8043 12.3034 26.6888C12.2439 26.5732 12.2077 26.447 12.197 26.3173C12.1862 26.1876 12.2011 26.0571 12.2408 25.9332C12.2804 25.8094 12.3441 25.6947 12.428 25.5957C12.5984 25.3953 12.8404 25.2708 13.1014 25.2491C13.3625 25.2274 13.6215 25.3103 13.8222 25.4798C14.2394 25.8327 14.2916 26.4571 13.9383 26.8743ZM20.8969 20.7523C20.7053 20.9779 20.433 21.1181 20.1393 21.1423C19.8456 21.1666 19.5543 21.073 19.3288 20.8819C19.2176 20.788 19.126 20.6728 19.0592 20.543C18.9925 20.4132 18.952 20.2713 18.9399 20.1257C18.9279 19.98 18.9447 19.8334 18.9893 19.6942C19.0338 19.5551 19.1053 19.4263 19.1996 19.3152C19.3912 19.0899 19.6633 18.9499 19.9568 18.9254C20.2502 18.901 20.5414 18.9941 20.7672 19.1845C20.8785 19.2785 20.9702 19.3937 21.0371 19.5236C21.1039 19.6534 21.1445 19.7954 21.1566 19.9411C21.1686 20.0869 21.1519 20.2337 21.1073 20.3729C21.0627 20.5121 20.9912 20.6411 20.8969 20.7523Z" fill="#FCB72C"/>
<path fill-rule="evenodd" clip-rule="evenodd" d="M5.01356 14.3071C4.90901 14.3071 4.80296 14.2854 4.70094 14.2378C4.61296 14.1971 4.53383 14.1393 4.46808 14.0677C4.40234 13.9962 4.35128 13.9122 4.31785 13.8207C4.28441 13.7292 4.26924 13.6319 4.27323 13.5344C4.27721 13.437 4.30027 13.3413 4.34107 13.2529C5.2146 11.3763 6.41633 9.66623 7.9156 8.16686C9.10646 6.97141 10.4587 5.95114 11.9324 5.13621C12.1046 5.04142 12.307 5.01883 12.4956 5.07333C12.6842 5.12784 12.844 5.25504 12.9401 5.42737C12.9872 5.51278 13.017 5.60673 13.0278 5.70381C13.0387 5.80089 13.0303 5.89917 13.0032 5.99296C12.9761 6.08676 12.9308 6.17421 12.8699 6.25027C12.8091 6.32632 12.7339 6.38947 12.6486 6.43607C11.297 7.18372 10.0568 8.1196 8.96453 9.21606C7.5884 10.5909 6.48569 12.1596 5.68755 13.8777C5.62743 14.0064 5.53214 14.1152 5.41285 14.1912C5.29357 14.2673 5.15523 14.3075 5.01406 14.3071M15.2109 4.07485C15.6195 4.42121 15.6708 5.03341 15.3235 5.44206C15.1565 5.63867 14.9191 5.76089 14.6631 5.78213C14.4071 5.80337 14.1531 5.72192 13.9564 5.55548C13.8594 5.47354 13.7794 5.37302 13.7211 5.25975C13.6629 5.14647 13.6275 5.02268 13.617 4.89554C13.6066 4.7684 13.6212 4.64043 13.6601 4.51903C13.6991 4.39763 13.7615 4.28521 13.8438 4.18827C14.0109 3.99178 14.2483 3.86965 14.5042 3.84841C14.7602 3.82717 15.0141 3.90854 15.2109 4.07485Z" fill="#FEFEFE"/>
</svg>
