<svg width="32" height="33" viewBox="0 0 32 33" fill="none" xmlns="http://www.w3.org/2000/svg">
<path fill-rule="evenodd" clip-rule="evenodd" d="M31.0733 16.7798C31.0733 25.0882 24.3245 31.8245 15.9995 31.8245C7.67504 31.8245 0.927254 25.0887 0.927254 16.7798C0.927254 8.47134 7.67504 4.09094 15.9995 4.09094C24.324 4.09094 31.0733 8.47083 31.0733 16.7798Z" fill="#F47C4A"/>
<path fill-rule="evenodd" clip-rule="evenodd" d="M20.9019 4.65765C25.3212 6.58195 28.2915 10.3506 28.2915 15.8553C28.2915 24.1627 21.5437 30.8985 13.2193 30.8985C12.0629 30.8985 10.942 30.7568 9.86008 30.5109C11.791 31.376 13.8835 31.8235 16 31.824C24.3245 31.824 31.0722 25.0882 31.0722 16.7803C31.0722 10.1872 26.8162 6.07798 20.9019 4.65765Z" fill="#DD5B36"/>
<path fill-rule="evenodd" clip-rule="evenodd" d="M16 5.01644C9.47377 5.01644 1.85349 8.09794 1.85349 16.7798C1.85349 24.565 8.20025 30.8991 16 30.8991C23.8003 30.8991 30.146 24.565 30.146 16.7798C30.146 8.09744 22.5257 5.01644 16 5.01644ZM16 32.75C7.17769 32.75 0 25.5851 0 16.7798C0 8.63683 6.42941 3.16602 16 3.16602C25.5701 3.16602 32 8.63683 32 16.7798C32 25.5846 24.8228 32.75 16 32.75Z" fill="#454849"/>
<path fill-rule="evenodd" clip-rule="evenodd" d="M16 14.099C12.3534 14.099 10.8117 12.2076 10.7478 12.1262C10.6035 11.933 10.5403 11.6913 10.5718 11.4524C10.6033 11.2135 10.7268 10.9962 10.9163 10.8468C11.1057 10.6975 11.346 10.6277 11.5862 10.6524C11.8263 10.6771 12.0474 10.7943 12.2023 10.9791C12.2378 11.0206 13.3065 12.2486 16 12.2486C18.694 12.2486 19.7632 11.0206 19.8063 10.9679C19.9633 10.7812 20.1874 10.6634 20.4304 10.6398C20.6734 10.6161 20.9161 10.6885 21.1062 10.8414C21.4986 11.1612 21.566 11.7305 21.2517 12.1267C21.1878 12.2076 19.6461 14.099 16 14.099Z" fill="#454849"/>
<path fill-rule="evenodd" clip-rule="evenodd" d="M15.999 14.098C15.603 14.098 15.2375 13.8445 15.1143 13.4468C15.0246 13.1554 12.9663 6.24449 18.4973 1.02162C18.585 0.934017 18.6893 0.864848 18.8042 0.818208C18.9191 0.771567 19.0422 0.748403 19.1662 0.750086C19.2902 0.751768 19.4126 0.778264 19.5262 0.828005C19.6397 0.877746 19.7422 0.949721 19.8274 1.03967C19.9126 1.12962 19.9788 1.23571 20.0222 1.35167C20.0656 1.46763 20.0852 1.59111 20.08 1.71478C20.0747 1.83845 20.0446 1.95981 19.9915 2.07168C19.9384 2.18354 19.8634 2.28364 19.7709 2.36605C15.093 6.78338 16.8107 12.6549 16.8867 12.9029C16.9286 13.0412 16.9375 13.1875 16.9127 13.3299C16.8879 13.4723 16.83 13.607 16.7438 13.7231C16.6575 13.8392 16.5452 13.9336 16.4159 13.9987C16.2866 14.0638 16.1438 14.0978 15.999 14.098Z" fill="#454849"/>
<path fill-rule="evenodd" clip-rule="evenodd" d="M5.3673 3.09771C15.5853 -0.122437 15.1032 8.15108 15.1032 8.15108C15.1032 8.15108 8.59366 13.2955 5.3673 3.09771Z" fill="#3BB777"/>
<path fill-rule="evenodd" clip-rule="evenodd" d="M5.3673 3.09772L15.1032 8.15108C15.1032 8.15108 8.59366 13.2955 5.3673 3.09772Z" fill="#229857"/>
<path fill-rule="evenodd" clip-rule="evenodd" d="M6.55817 3.71503C7.52496 6.32697 8.80152 7.891 10.3589 8.36714C11.9508 8.85796 13.492 8.08885 14.1693 7.66887C14.1212 6.87294 13.8596 5.15509 12.547 4.1426C11.2603 3.14984 9.24867 3.00765 6.55817 3.71503ZM11.4185 10.3739C10.9039 10.3739 10.365 10.3046 9.81647 10.1361C7.4692 9.41911 5.67452 7.14466 4.48314 3.37601C4.44623 3.26013 4.43259 3.13813 4.443 3.01698C4.45341 2.89583 4.48766 2.77792 4.5438 2.67C4.59993 2.56208 4.67685 2.46628 4.77013 2.38807C4.86342 2.30987 4.97125 2.2508 5.08745 2.21425C8.86337 1.02668 11.7592 1.18557 13.6958 2.68989C16.2053 4.64049 16.0365 8.0595 16.0279 8.20522C16.0127 8.46834 15.8859 8.71122 15.6781 8.87617C15.5843 8.94954 13.7496 10.3739 11.4175 10.3739" fill="#454849"/>
<path fill-rule="evenodd" clip-rule="evenodd" d="M12.6444 17.7675C8.982 17.7675 7.04081 15.1601 6.95716 15.0452C6.84852 14.8965 6.80351 14.7108 6.83203 14.529C6.86055 14.3472 6.96027 14.1842 7.10925 14.0757C7.25823 13.9673 7.44426 13.9224 7.62643 13.9508C7.80859 13.9793 7.97196 14.0788 8.08061 14.2275C8.14955 14.3201 9.80329 16.4878 12.9237 16.374C13.312 16.3269 13.6319 16.6543 13.6487 17.0373C13.6526 17.1283 13.6386 17.2191 13.6073 17.3047C13.5761 17.3902 13.5283 17.4688 13.4666 17.5359C13.4049 17.603 13.3306 17.6573 13.2479 17.6958C13.1652 17.7342 13.0757 17.756 12.9845 17.7599C12.87 17.7654 12.7554 17.7675 12.6444 17.7675ZM6.86438 11.6702C7.24765 11.9941 7.29531 12.5674 6.97034 12.9494C6.89314 13.0403 6.79877 13.1151 6.69259 13.1696C6.58642 13.2241 6.47053 13.2572 6.35155 13.267C6.23256 13.2768 6.11281 13.2631 5.99912 13.2267C5.88544 13.1903 5.78005 13.1319 5.68897 13.0549C5.59789 12.9778 5.52291 12.8836 5.46831 12.7777C5.41371 12.6717 5.38055 12.556 5.37074 12.4373C5.36092 12.3185 5.37464 12.199 5.4111 12.0855C5.44757 11.9721 5.50607 11.8669 5.58327 11.776C5.73918 11.5925 5.96173 11.4783 6.20199 11.4586C6.44224 11.4388 6.68051 11.5146 6.86438 11.6702Z" fill="#FEFEFE"/>
</svg>
